<svg width="960" height="360" viewBox="0 0 960 360" fill="none" xmlns="http://www.w3.org/2000/svg" role="img" aria-labelledby="title desc">
  <title id="title">Abhay Bansal public profile snapshot</title>
  <desc id="desc">A public snapshot showing Abhay Bansal's backend engineering focus, problem solving credentials, experience, and technical stack.</desc>
  <style>
    .bg { fill: #0d1117; }
    .panel { fill: #111821; stroke: #30363d; stroke-width: 1; }
    .tile { fill: #0d1117; stroke: #30363d; stroke-width: 1; }
    .title { fill: #f0f6fc; font: 700 28px -apple-system, BlinkMacSystemFont, "Segoe UI", sans-serif; }
    .subtitle { fill: #8b949e; font: 500 14px -apple-system, BlinkMacSystemFont, "Segoe UI", sans-serif; }
    .label { fill: #8b949e; font: 600 12px -apple-system, BlinkMacSystemFont, "Segoe UI", sans-serif; text-transform: uppercase; }
    .value { fill: #58a6ff; font: 800 28px -apple-system, BlinkMacSystemFont, "Segoe UI", sans-serif; }
    .text { fill: #c9d1d9; font: 500 14px -apple-system, BlinkMacSystemFont, "Segoe UI", sans-serif; }
    .small { fill: #c9d1d9; font: 600 12px -apple-system, BlinkMacSystemFont, "Segoe UI", sans-serif; }
    .pill { fill: #161b22; stroke: #30363d; stroke-width: 1; }
    .accent-blue { fill: #58a6ff; }
    .accent-green { fill: #3fb950; }
    .accent-orange { fill: #f0883e; }
  </style>
  <rect class="bg" x="0" y="0" width="960" height="360" rx="14" />
  <rect class="panel" x="18" y="18" width="924" height="324" rx="12" />

  <text class="subtitle" x="42" y="52">abhaybansal0322 / README.md</text>
  <text class="title" x="42" y="88">Abhay Bansal</text>
  <text class="text" x="42" y="116">Software Development Engineer - Backend Systems, Automation, and AI-Native Developer Tooling</text>

  <g transform="translate(42 146)">
    <rect class="tile" x="0" y="0" width="200" height="72" rx="10" />
    <circle class="accent-blue" cx="26" cy="27" r="5" />
    <text class="value" x="48" y="34">50+</text>
    <text class="label" x="48" y="56">Integration workflows</text>
  </g>

  <g transform="translate(260 146)">
    <rect class="tile" x="0" y="0" width="200" height="72" rx="10" />
    <circle class="accent-green" cx="26" cy="27" r="5" />
    <text class="value" x="48" y="34">800+</text>
    <text class="label" x="48" y="56">DSA problems solved</text>
  </g>

  <g transform="translate(478 146)">
    <rect class="tile" x="0" y="0" width="200" height="72" rx="10" />
    <circle class="accent-orange" cx="26" cy="27" r="5" />
    <text class="value" x="48" y="34">2145</text>
    <text class="label" x="48" y="56">LeetCode Guardian</text>
  </g>

  <g transform="translate(696 146)">
    <rect class="tile" x="0" y="0" width="200" height="72" rx="10" />
    <circle class="accent-blue" cx="26" cy="27" r="5" />
    <text class="value" x="48" y="34">1919</text>
    <text class="label" x="48" y="56">CodeChef 4-Star</text>
  </g>

  <g transform="translate(42 244)">
    <text class="label" x="0" y="0">Core stack</text>
    <g transform="translate(0 18)">
      <rect class="pill" x="0" y="0" width="58" height="30" rx="15" />
      <text class="small" x="18" y="20">Go</text>
      <rect class="pill" x="68" y="0" width="96" height="30" rx="15" />
      <text class="small" x="85" y="20">TypeScript</text>
      <rect class="pill" x="174" y="0" width="78" height="30" rx="15" />
      <text class="small" x="193" y="20">Node.js</text>
      <rect class="pill" x="262" y="0" width="86" height="30" rx="15" />
      <text class="small" x="281" y="20">REST APIs</text>
      <rect class="pill" x="358" y="0" width="78" height="30" rx="15" />
      <text class="small" x="378" y="20">Docker</text>
      <rect class="pill" x="446" y="0" width="116" height="30" rx="15" />
      <text class="small" x="466" y="20">GitHub Actions</text>
      <rect class="pill" x="572" y="0" width="58" height="30" rx="15" />
      <text class="small" x="590" y="20">AWS</text>
      <rect class="pill" x="640" y="0" width="94" height="30" rx="15" />
      <text class="small" x="659" y="20">PostgreSQL</text>
      <rect class="pill" x="744" y="0" width="84" height="30" rx="15" />
      <text class="small" x="763" y="20">MongoDB</text>
      <rect class="pill" x="838" y="0" width="64" height="30" rx="15" />
      <text class="small" x="856" y="20">Redis</text>
    </g>
  </g>

  <g transform="translate(42 314)">
    <text class="subtitle" x="0" y="0">Building production-oriented backend services, API integrations, workflow automation, and agent tooling.</text>
  </g>
</svg>
